<mxfile modified="2020-09-08T19:16:16.709Z" host="app.diagrams.net" agent="5.0 (Macintosh; Intel Mac OS X 10_15_4) AppleWebKit/605.1.15 (KHTML, like Gecko) Version/13.1.2 Safari/605.1.15" etag="oN6p3M15BByBoYP-qRSC" version="13.6.6" type="github">
  <diagram id="04d3i-9KU2tXRQpcHc8r" name="Data Communication">
    <mxGraphModel dx="1178" dy="754" grid="1" gridSize="5" guides="1" tooltips="1" connect="1" arrows="1" fold="1" page="1" pageScale="1" pageWidth="1169" pageHeight="827" math="0" shadow="0">
      <root>
        <mxCell id="Ps8T6w26ynxrEsZP9qTw-0" />
        <mxCell id="Ps8T6w26ynxrEsZP9qTw-1" parent="Ps8T6w26ynxrEsZP9qTw-0" />
        <mxCell id="Vjo3kaJNEst4xchoB2S7-3" value="Visual Mix Segmentation Component" style="text;html=1;resizable=0;points=[];autosize=1;align=left;verticalAlign=top;spacingTop=-4;fontSize=30;fontStyle=1" parent="Ps8T6w26ynxrEsZP9qTw-1" vertex="1">
          <mxGeometry x="17" y="70.5" width="540" height="40" as="geometry" />
        </mxCell>
        <mxCell id="Vjo3kaJNEst4xchoB2S7-5" value="" style="line;strokeWidth=2;html=1;fontSize=14;" parent="Ps8T6w26ynxrEsZP9qTw-1" vertex="1">
          <mxGeometry x="13" y="145.5" width="1060" height="10" as="geometry" />
        </mxCell>
        <mxCell id="a-pRfIUOM88Ss_KxHDqI-0" value="Simple Visual Mix Segmentation Component" style="text;html=1;resizable=0;points=[];autosize=1;align=left;verticalAlign=top;spacingTop=-4;fontSize=16" parent="Ps8T6w26ynxrEsZP9qTw-1" vertex="1">
          <mxGeometry x="12" y="115.5" width="330" height="25" as="geometry" />
        </mxCell>
        <mxCell id="FK0prAdGzY6Ms7PpbqKq-34" value="segmentationÂ " style="swimlane;fontStyle=0;childLayout=stackLayout;horizontal=1;startSize=26;fillColor=none;horizontalStack=0;resizeParent=1;resizeParentMax=0;resizeLast=0;collapsible=1;marginBottom=0;fontSize=11;align=center;html=0;" parent="Ps8T6w26ynxrEsZP9qTw-1" vertex="1">
          <mxGeometry x="65" y="205" width="140" height="104" as="geometry" />
        </mxCell>
        <mxCell id="FK0prAdGzY6Ms7PpbqKq-35" value="tenant_id: long (FK)" style="text;strokeColor=none;fillColor=none;align=left;verticalAlign=top;spacingLeft=4;spacingRight=4;overflow=hidden;rotatable=0;points=[[0,0.5],[1,0.5]];portConstraint=eastwest;" parent="FK0prAdGzY6Ms7PpbqKq-34" vertex="1">
          <mxGeometry y="26" width="140" height="26" as="geometry" />
        </mxCell>
        <mxCell id="FK0prAdGzY6Ms7PpbqKq-36" value="id: long (Seq_table PK)" style="text;strokeColor=none;fillColor=none;align=left;verticalAlign=top;spacingLeft=4;spacingRight=4;overflow=hidden;rotatable=0;points=[[0,0.5],[1,0.5]];portConstraint=eastwest;" parent="FK0prAdGzY6Ms7PpbqKq-34" vertex="1">
          <mxGeometry y="52" width="140" height="26" as="geometry" />
        </mxCell>
        <mxCell id="FK0prAdGzY6Ms7PpbqKq-37" value="type: varchar(15)&#xa;" style="text;strokeColor=none;fillColor=none;align=left;verticalAlign=top;spacingLeft=4;spacingRight=4;overflow=hidden;rotatable=0;points=[[0,0.5],[1,0.5]];portConstraint=eastwest;" parent="FK0prAdGzY6Ms7PpbqKq-34" vertex="1">
          <mxGeometry y="78" width="140" height="26" as="geometry" />
        </mxCell>
      </root>
    </mxGraphModel>
  </diagram>
</mxfile>
